<?xml version="1.0" standalone="no"?>
<!DOCTYPE svg PUBLIC "-//W3C//DTD SVG 20010904//EN"
 "http://www.w3.org/TR/2001/REC-SVG-20010904/DTD/svg10.dtd">
<svg version="1.0" xmlns="http://www.w3.org/2000/svg"
 width="321.000000pt" height="340.000000pt" viewBox="0 0 321.000000 340.000000"
 preserveAspectRatio="xMidYMid meet">

<g transform="translate(0.000000,340.000000) scale(0.100000,-0.100000)"
fill="#000000" stroke="none">
<path d="M1185 3173 c-33 -9 -65 -35 -81 -64 -10 -21 -14 -67 -14 -179 l0
-150 -275 0 c-297 0 -318 -3 -364 -53 -52 -57 -31 -161 40 -199 32 -17 87 -18
1129 -18 1042 0 1097 1 1129 18 104 56 85 210 -28 242 -20 5 -156 10 -303 10
l-268 0 0 150 c0 165 -7 192 -57 226 -26 18 -54 19 -458 21 -236 0 -439 -1
-450 -4z m705 -328 l0 -65 -270 0 -270 0 0 65 0 65 270 0 270 0 0 -65z"/>
<path d="M643 2369 c-43 -12 -80 -60 -88 -112 -3 -23 -5 -391 -3 -817 4 -846
1 -797 63 -921 35 -68 145 -178 210 -211 131 -66 97 -63 790 -63 512 0 639 3
680 14 90 25 167 71 236 140 67 67 95 111 133 211 20 54 21 70 24 830 2 426 0
794 -3 817 -17 117 -149 158 -231 72 l-29 -30 -5 -802 c-5 -797 -5 -802 -26
-842 -28 -51 -68 -91 -119 -119 -40 -21 -45 -21 -655 -21 l-615 0 -44 23 c-51
28 -85 62 -115 117 -21 40 -21 45 -26 842 l-5 802 -29 30 c-17 17 -46 36 -65
41 -41 11 -35 11 -78 -1z"/>
<path d="M1291 2092 c-72 -39 -71 -28 -71 -582 0 -461 1 -498 18 -529 56 -104
210 -85 242 28 6 22 10 228 10 509 0 509 0 512 -53 561 -35 32 -101 38 -146
13z"/>
<path d="M1835 2100 c-31 -12 -64 -53 -75 -91 -13 -45 -13 -952 0 -1000 32
-113 186 -132 242 -28 17 31 18 68 18 529 0 461 -1 498 -18 529 -31 57 -108
86 -167 61z"/>
</g>
</svg>
